<?xml version="1.0" standalone="no"?>
<!DOCTYPE svg PUBLIC "-//W3C//DTD SVG 20010904//EN"
 "http://www.w3.org/TR/2001/REC-SVG-20010904/DTD/svg10.dtd">
<svg version="1.0" xmlns="http://www.w3.org/2000/svg"
 width="82.000000pt" height="82.000000pt" viewBox="0 0 82.000000 82.000000"
 preserveAspectRatio="xMidYMid meet">
<metadata>
Created by potrace 1.11, written by Peter Selinger 2001-2013
</metadata>
<g transform="translate(0.000000,82.000000) scale(0.100000,-0.100000)"
fill="#000000" stroke="none">
<path d="M310 734 c-106 -28 -185 -92 -239 -193 -17 -33 -31 -65 -31 -73 0 -9
26 -20 78 -31 42 -10 87 -21 99 -24 23 -5 23 -5 8 31 -49 116 11 234 144 281
61 21 73 18 27 -7 -76 -39 -100 -95 -71 -164 15 -36 80 -114 96 -114 3 0 9 17
13 38 7 45 48 92 105 121 42 22 124 44 116 31 -2 -4 -18 -10 -35 -13 -38 -8
-97 -68 -109 -112 -16 -57 -4 -103 47 -189 51 -85 77 -166 70 -216 -5 -34 -1
-36 28 -12 92 77 143 218 123 341 -34 218 -255 361 -469 305z"/>
<path d="M30 374 c0 -106 40 -202 115 -274 l36 -35 37 20 c105 57 109 178 8
267 -35 32 -121 76 -166 84 l-30 7 0 -69z"/>
</g>
</svg>
