<?xml version="1.0" encoding="UTF-8" standalone="no"?>

<svg 
   xmlns:svg="http://www.w3.org/2000/svg"
   xmlns="http://www.w3.org/2000/svg"
    viewBox="0 0 1781 103.5" style="fill:black" alt="vf.dk">
<path d="M686.969 73.047c0 16.074-9.078 27.687-34.613 27.907h-97.797V85.012h98.758c9.064 0 13.318-4.02 13.318-11.836 0-7.729-3.861-12.457-12.439-12.457h-72.715c-14.619 0-27.438-8.965-27.438-27.568 0-18.627 12.566-29.057 28.229-29.057H684.57v16.084h-98.027c-8.199-.053-12.65 4.406-12.65 11.379 0 7.143 3.799 11.417 13.072 11.417h67.605c19.262 0 32.399 8.452 32.399 30.073m367.363 28.484c11.424 0 17.668-.084 25.146-.57 25.596-1.676 39.551-12.428 40.943-34.236 0 0 .5-5.414.5-15.756 0-10.383-.5-16.646-.5-16.646-1.221-19.545-12.387-29.279-38.961-30.229-8.301-.305-14.809-.65-27.875-.65-13.133 0-25.102.65-25.102.65-23.805.328-37.717 11.033-39.385 31.588 0 0-.557 3.715-.557 16.307 0 12.604.557 17.783.557 17.783 1.857 22.137 13.416 29.736 41.725 31.189 8.185.445 12.068.57 23.509.57m23.098-81.353c16.338 1.154 21.488 3.104 22.701 19.957 0 0 .439 2.971.439 10.102 0 7.045-.439 14.273-.439 14.273-1.039 12.305-6.783 18.74-20.928 20.502-4.811.598-12.814.598-24.984.598-12.184 0-16.326 0-23.395-.598-15.609-1.246-20.25-5.707-21.23-18.193 0 0-.592-7.342-.592-15.48 0-8.221.592-12.762.592-12.762 1.117-15.045 8.859-17.775 19.164-18.398 0 0 14.301-.662 24.986-.662 13.447-.001 17.611.198 23.686.661zm254.466-16.084h-3.129v96.867c.818 0 34.74.352 55.23.352 19.154 0 24.428-.352 24.428-.352 32.258-1.635 43.318-9.387 45.738-33.574 0 0 .844-5.777.844-14.984 0-9.197-.555-15.549-.555-15.549-1.66-25.365-18.281-32.168-46.719-32.76 0 0-14.02-.27-31.201-.27-17.302 0-44.636.27-44.636.27m17.877 16.062s11.91-.262 26.514-.262c14.533 0 31.404.283 31.404.283 16.373.686 25.23 5.18 26.439 19.904 0 0 .744 4.199.744 11.18 0 6.949-.699 13.383-.699 13.383-1.404 15.703-10.617 19.547-28.375 20.344 0 0-7.418.357-20.279.357-12.973 0-36.443-.357-36.443-.357V20.156h.695zM172.689 4.094l-23.379.012-53.896 80.906H74.105L26.242 4.094H2.299l59.354 96.867h45.852l65.184-96.867m653.045 0s-122.877.012-122.854 0c.037 0 0 15.947 0 15.947h51.215v80.913h20.421V20.041h51.217V4.094m-565.874 69.75c-.545 13.617 8.457 27.117 27.258 27.117h84.719V85.043h-78.385c-9.107 0-13.189-4.137-13.189-10.971V59.764h91.574V43.547l-111.977-.012v30.309m-61.13-46.395c-.021.018-49.793 73.512-49.793 73.512h23.15l42.965-63.082c10.643-14.807 17.85-17.27 36.613-17.838h120.172V4.094h-127.65c-20.342 0-34.418 8.164-45.457 23.355m1095.263 73.512V4.117h-20.438v80.895h-4.504c-8.908 0-13.607-1.496-21.277-13.447-10.84-17.854-25.248-42.537-30.109-48.938-7.723-9.926-17.416-18.51-34.473-18.51h-28.061v96.844h18.947v-80.76h5.732c10.021 0 17.119 5.201 24.377 16.635a6194.01 6194.01 0 0 1 25.727 41.807c9.664 15.998 17.232 22.318 41.406 22.318h22.673m484.518 0V4.117h-20.346v80.895h-4.484c-8.932 0-13.695-1.496-21.342-13.447-10.885-17.854-25.207-42.537-30.141-48.938-7.57-9.926-17.346-18.51-34.377-18.51h-28.201v96.844h19.008v-80.76h5.705c10.09 0 17.182 5.201 24.441 16.635 4.07 6.568 15.41 24.941 25.605 41.807 9.732 15.998 17.336 22.318 41.559 22.318h22.573m-898.1-80.93h87.164V4.094H873.23c-16.342 0-25.219 9.223-25.219 25.316L848 100.954h20.574V59.75h98.992V43.548l-98.992-.001V32.891c0-9.875 4.36-12.86 11.836-12.86m635.735 64.981c-6.438 0-10.119-3.133-10.119-11.314V59.764h99.021V43.542l-99.021.003V32.09c0-7.555 2.244-12.041 10.898-12.041h88.107l.01-15.955h-92.99c-15.559 0-26.557 8.586-26.557 25.471l.197 48.189c0 14.576 9.773 23.2 28.314 23.2h91.04V85.012h-88.9M423.125 4.094h-20.406v96.867h20.406V4.094zm84.707 96.867h33.312L461.48 51.649l76.816-47.556h-30.465c-.021.012-.08.012-.08.012-.645.287-66.486 39.441-66.486 39.441v16.217l66.567 41.198z">
</path>
</svg>
